<svg xmlns="http://www.w3.org/2000/svg" width="400" height="400" fill="none" viewBox="0 0 400 400"><path fill="#fff" d="M0 0h400v400H0z"/><path fill="#f3efe6" d="M191 60h19v280h-19z"/><mask id="a" fill="#fff"><path d="M1 0h186v400H1z"/></mask><path fill="#373c5f" d="M1 0v-32h-32V0zm0 400h-32v32H1zM1 0v32h186v-64H1zm186 400v-32H1v64h186zM1 400h32V0h-64v400z" mask="url(#a)"/><path fill="#d0d2ec" d="M35 114h20v20H35zM57 114h20v20H57zM79 114h20v20H79zM101 114h20v20h-20zM123 114h20v20h-20zM145 114h20v20h-20zM167 114h20v20h-20zM35 150h20v20H35zM57 150h20v20H57zM79 150h20v20H79zM101 150h20v20h-20zM123 150h20v20h-20zM145 150h20v20h-20zM167 150h20v20h-20zM35 184h20v20H35zM57 184h20v20H57zM79 184h20v20H79z"/><path fill="#373c5f" d="M101 184h20v20h-20z"/><path fill="#d0d2ec" d="M123 184h20v20h-20zM145 184h20v20h-20zM167 184h20v20h-20zM35 220h20v20H35zM57 220h20v20H57zM79 220h20v20H79zM101 220h20v20h-20zM123 220h20v20h-20zM145 220h20v20h-20zM167 220h20v20h-20zM35 256h20v20H35zM57 256h20v20H57zM79 256h20v20H79z"/><mask id="b" fill="#fff"><path d="M400 400H214V0h186z"/></mask><path fill="#ded7a0" d="M400 400v32h32v-32zm0-400h32v-32h-32zm0 400v-32H214v64h186zM214 0v32h186v-64H214zm186 0h-32v400h64V0z" mask="url(#b)"/><path fill="#ecead0" d="M214 114h20v20h-20zM236 114h20v20h-20zM258 114h20v20h-20zM280 114h20v20h-20zM302 114h20v20h-20zM324 114h20v20h-20zM346 114h20v20h-20zM214 150h20v20h-20zM236 150h20v20h-20zM258 150h20v20h-20zM280 150h20v20h-20zM302 150h20v20h-20zM324 150h20v20h-20zM346 150h20v20h-20zM214 184h20v20h-20zM236 184h20v20h-20zM258 184h20v20h-20z"/><path fill="#ded7a0" d="M280 184h20v20h-20z"/><path fill="#ecead0" d="M302 184h20v20h-20zM324 184h20v20h-20zM346 184h20v20h-20zM214 220h20v20h-20zM236 220h20v20h-20zM258 220h20v20h-20zM280 220h20v20h-20zM302 220h20v20h-20zM324 220h20v20h-20zM346 220h20v20h-20zM214 256h20v20h-20zM236 256h20v20h-20zM258 256h20v20h-20z"/></svg>