<svg xmlns="http://www.w3.org/2000/svg" width="400" height="400" fill="none" viewBox="0 0 400 400"><path fill="#fff" d="M0 0h400v400H0z"/><mask id="a" fill="#fff"><path d="M0 0h186v400H0z"/></mask><path fill="#373c5f" d="M0 0v-32h-32V0zm0 400h-32v32H0zM0 0v32h186v-64H0zm186 400v-32H0v64h186zM0 400h32V0h-64v400z" mask="url(#a)"/><path fill="#373c5f" d="M46 130h140v140H46z"/><mask id="b" fill="#fff"><path d="M400 400H214V0h186z"/></mask><path fill="#ded7a0" d="M400 400v32h32v-32zm0-400h32v-32h-32zm0 400v-32H214v64h186zM214 0v32h186v-64H214zm186 0h-32v400h64V0z" mask="url(#b)"/><path fill="#ded7a0" d="M214 130h140v140H214z"/></svg>